<!DOCTYPE svg PUBLIC "-//W3C//DTD SVG 1.1//EN" "http://www.w3.org/Graphics/SVG/1.1/DTD/svg11.dtd">

<!-- Uploaded to: SVG Repo, www.svgrepo.com, Transformed by: SVG Repo Mixer Tools -->
<svg height="32px" width="32px" version="1.1" id="Layer_1"
  xmlns="http://www.w3.org/2000/svg"
  xmlns:xlink="http://www.w3.org/1999/xlink" viewBox="-51.2 -51.2 614.40 614.40" xml:space="preserve" fill="#000000">

  <g id="SVGRepo_bgCarrier" stroke-width="0">

    <rect x="-51.2" y="-51.2" width="614.40" height="614.40" rx="307.2" fill="#e3e7e8" strokewidth="0"/>

  </g>

  <g id="SVGRepo_tracerCarrier" stroke-linecap="round" stroke-linejoin="round"/>

  <g id="SVGRepo_iconCarrier">
    <g>
      <path style="fill:#328777;" d="M96.35,356.195c35.667-6.141,62.803-37.224,62.803-74.645c0-15.973-4.945-30.791-13.386-43.008 c-5.567-8.058-6.572-18.41-2.397-27.269c4.032-8.555,6.287-18.111,6.287-28.195c0-13.344-3.948-25.764-10.739-36.159 c-7.06-10.808-8.078-24.576-2.895-36.399c3.434-7.83,5.169-16.574,4.739-25.767c-1.38-29.533-25.455-53.439-54.997-54.623 c-32.788-1.314-59.783,24.878-59.783,57.375c0,8.196,1.719,15.991,4.816,23.043c5.186,11.811,4.145,25.573-2.908,36.373 c-6.79,10.396-10.737,22.814-10.737,36.157c0,10.086,2.256,19.644,6.289,28.2c4.132,8.766,3.304,19.078-2.236,27.031 c-9.114,13.085-14.206,29.182-13.48,46.498c1.53,36.555,29.401,66.534,64.781,71.704L96.35,356.195z"/>
      <path style="fill:#328777;" d="M268.944,356.195c35.667-6.141,62.803-37.224,62.803-74.645c0-15.973-4.945-30.791-13.386-43.008 c-5.567-8.058-6.572-18.41-2.397-27.269c4.032-8.555,6.287-18.111,6.287-28.195c0-13.344-3.948-25.764-10.739-36.159 c-7.06-10.808-8.078-24.576-2.894-36.399c3.434-7.83,5.169-16.574,4.739-25.767c-1.38-29.533-25.455-53.439-54.997-54.623 c-32.788-1.314-59.783,24.878-59.783,57.375c0,8.196,1.719,15.991,4.816,23.043c5.186,11.811,4.145,25.573-2.908,36.373 c-6.79,10.396-10.737,22.814-10.737,36.157c0,10.086,2.256,19.644,6.289,28.2c4.132,8.766,3.304,19.078-2.236,27.031 c-9.114,13.085-14.206,29.182-13.481,46.498c1.53,36.555,29.401,66.534,64.781,71.704L268.944,356.195z"/>
    </g>
    <g>
      <path style="fill:#266659;" d="M318.785,237.72c-5.673-7.984-6.813-18.323-2.755-27.236c3.92-8.607,6.049-18.192,5.917-28.276 c-0.175-13.343-4.286-25.709-11.211-36.015c-7.201-10.715-8.401-24.468-3.371-36.358c3.33-7.875,4.951-16.64,4.401-25.827 c-1.211-20.195-13.016-37.613-29.819-46.854c3.489,6.822,5.661,14.419,6.143,22.463c0.55,9.187-1.071,17.952-4.4,25.827 c-5.028,11.89-3.829,25.643,3.371,36.358c6.925,10.306,11.037,22.672,11.211,36.015c0.133,10.083-1.997,19.669-5.917,28.276 c-4.059,8.913-2.919,19.252,2.755,27.236c8.601,12.105,13.739,26.857,13.949,42.828c0.491,37.418-26.235,68.854-61.819,75.463 l-23.835,0.626c-11.35-1.507-21.957-5.578-31.208-11.602c11.717,19.263,31.77,32.927,54.883,35.995l23.835-0.626 c35.584-6.609,62.31-38.045,61.819-75.463C332.525,264.577,327.386,249.825,318.785,237.72z"/>
      <path style="fill:#266659;" d="M146.136,237.72c-5.673-7.984-6.813-18.323-2.755-27.236c3.92-8.607,6.049-18.192,5.917-28.276 c-0.175-13.343-4.286-25.709-11.211-36.015c-7.201-10.715-8.401-24.468-3.371-36.358c3.33-7.875,4.951-16.64,4.401-25.827 c-1.21-20.197-13.014-37.614-29.818-46.856c3.489,6.822,5.661,14.419,6.143,22.463c0.55,9.187-1.071,17.952-4.4,25.827 c-5.028,11.89-3.829,25.643,3.371,36.358c6.925,10.306,11.037,22.672,11.211,36.015c0.133,10.083-1.997,19.669-5.917,28.276 c-4.059,8.913-2.919,19.252,2.755,27.236c8.601,12.105,13.739,26.857,13.949,42.828c0.491,37.418-26.235,68.854-61.819,75.463 l-23.835,0.626c-11.35-1.507-21.957-5.578-31.208-11.602c11.717,19.263,31.77,32.927,54.883,35.995l23.835-0.626 c35.584-6.609,62.31-38.045,61.819-75.463C159.874,264.577,154.737,249.825,146.136,237.72z"/>
    </g>
    <g>
      <path style="fill:#AA8B65;" d="M123.109,167.183L123.109,167.183c-4.636-4.636-12.224-4.636-16.861,0l-9.9,9.9v-48.385 c0-6.557-5.365-11.922-11.922-11.922c-6.557,0-11.922,5.365-11.922,11.922v147.696l-9.9-9.9c-4.636-4.636-12.224-4.636-16.861,0 l0,0c-4.636,4.636-4.636,12.223,0,16.861l26.761,26.761v159.882c0,6.557,5.365,11.922,11.922,11.922 c6.557,0,11.922-5.365,11.922-11.922V210.805l26.761-26.761C127.746,179.407,127.746,171.821,123.109,167.183z"/>
      <path style="fill:#AA8B65;" d="M295.704,167.183L295.704,167.183c-4.636-4.636-12.224-4.636-16.861,0l-9.9,9.9v-48.385 c0-6.557-5.365-11.922-11.922-11.922s-11.922,5.365-11.922,11.922v147.696l-9.9-9.9c-4.636-4.636-12.224-4.636-16.861,0l0,0 c-4.636,4.636-4.636,12.223,0,16.861l26.761,26.761v159.882c0,6.557,5.365,11.922,11.922,11.922s11.922-5.365,11.922-11.922 V210.805l26.761-26.761C300.341,179.407,300.341,171.821,295.704,167.183z"/>
    </g>
    <path style="fill:#328777;" d="M443.675,356.011c35.583-6.609,62.31-38.045,61.819-75.463c-0.209-15.971-5.348-30.723-13.949-42.828 c-5.673-7.984-6.813-18.323-2.755-27.236c3.92-8.607,6.049-18.192,5.917-28.276c-0.175-13.343-4.286-25.709-11.211-36.015 c-7.201-10.715-8.401-24.468-3.371-36.358c3.33-7.875,4.951-16.64,4.4-25.827c-1.767-29.513-26.154-53.1-55.709-53.897 c-32.803-0.883-59.452,25.66-59.025,58.154c0.107,8.196,1.929,15.966,5.118,22.977c5.341,11.741,4.48,25.516-2.431,36.408 c-6.653,10.483-10.436,22.953-10.262,36.295c0.133,10.085,2.514,19.613,6.659,28.115c4.247,8.711,3.554,19.033-1.881,27.057 c-8.942,13.203-13.822,29.366-12.87,46.67c2.01,36.532,30.272,66.143,65.717,70.848L443.675,356.011z"/>
    <path style="fill:#266659;" d="M492.373,237.72c-5.673-7.984-6.813-18.323-2.755-27.236c3.92-8.607,6.049-18.192,5.917-28.276 c-0.175-13.343-4.286-25.709-11.211-36.015c-7.201-10.715-8.401-24.468-3.371-36.358c3.33-7.875,4.951-16.64,4.401-25.827 c-1.211-20.195-13.016-37.613-29.819-46.854c3.489,6.822,5.661,14.419,6.143,22.463c0.55,9.187-1.071,17.952-4.4,25.827 c-5.028,11.89-3.829,25.643,3.371,36.358c6.925,10.306,11.037,22.672,11.211,36.015c0.133,10.083-1.997,19.669-5.917,28.276 c-4.059,8.913-2.919,19.252,2.755,27.236c8.601,12.105,13.739,26.857,13.949,42.828c0.491,37.418-26.235,68.854-61.819,75.463 l-23.835,0.626c-11.35-1.507-21.957-5.578-31.208-11.602c11.717,19.263,31.77,32.927,54.883,35.995l23.835-0.626 c35.584-6.609,62.31-38.045,61.819-75.463C506.112,264.577,500.974,249.825,492.373,237.72z"/>
    <path style="fill:#AA8B65;" d="M468.299,167.183L468.299,167.183c-4.636-4.636-12.224-4.636-16.861,0l-9.9,9.9v-48.385 c0-6.557-5.365-11.922-11.922-11.922s-11.922,5.365-11.922,11.922v147.696l-9.9-9.9c-4.636-4.636-12.224-4.636-16.861,0l0,0 c-4.636,4.636-4.636,12.223,0,16.861l26.761,26.761v159.882c0,6.557,5.365,11.922,11.922,11.922s11.922-5.365,11.922-11.922V210.805 l26.761-26.761C472.935,179.407,472.935,171.821,468.299,167.183z"/>
    <g>
      <path style="fill:#328777;" d="M185.255,480.083c11.62,0,21.039-9.42,21.039-21.039c0-9.408-6.177-17.37-14.696-20.061 c0.241-1.273,0.38-2.583,0.38-3.927c0-11.62-9.42-21.039-21.039-21.039c-11.62,0-21.039,9.42-21.039,21.039 c0,1.035,0.1,2.046,0.244,3.042c-10.766,0.924-19.221,9.941-19.221,20.948c0,11.62,9.42,21.039,21.039,21.039h33.293V480.083z"/>
      <path style="fill:#328777;" d="M359.966,480.083c11.62,0,21.039-9.42,21.039-21.039c0-9.408-6.177-17.37-14.696-20.061 c0.241-1.273,0.38-2.583,0.38-3.927c0-11.62-9.42-21.039-21.039-21.039c-11.62,0-21.039,9.42-21.039,21.039 c0,1.035,0.1,2.046,0.244,3.042c-10.766,0.924-19.221,9.941-19.221,20.948c0,11.62,9.42,21.039,21.039,21.039h33.293V480.083z"/>
    </g>
    <path d="M166.81,281.55c0-17.025-5.098-33.401-14.743-47.361c-4.045-5.854-4.723-13.384-1.769-19.652 c4.658-9.88,7.018-20.465,7.018-31.46c0-14.392-4.145-28.344-11.984-40.347c-5.561-8.514-6.441-19.678-2.294-29.136 c4.043-9.217,5.851-19.041,5.378-29.2c-1.561-33.381-28.945-60.578-62.34-61.917c-17.917-0.71-34.862,5.707-47.75,18.091 C25.429,52.957,18.327,69.625,18.327,87.504c0,9.08,1.838,17.867,5.462,26.12c4.142,9.433,3.257,20.587-2.308,29.109 c-7.84,12.004-11.983,25.954-11.983,40.344c0,10.997,2.362,21.583,7.02,31.464c2.965,6.291,2.355,13.721-1.593,19.388 C4.438,248.983-0.696,266.686,0.076,285.124c1.579,37.724,28.408,69.419,64.77,77.722v107.15c0,10.796,8.785,19.579,19.58,19.579 s19.579-8.784,19.579-19.579V362.376C140.759,353.091,166.81,320.086,166.81,281.55z M15.377,284.484 c-0.63-15.065,3.558-29.519,12.114-41.801c7.071-10.152,8.174-23.437,2.878-34.672c-3.688-7.824-5.558-16.213-5.558-24.934 c0-11.407,3.282-22.463,9.491-31.97c8.487-12.996,9.8-29.31,3.509-43.639c-2.767-6.3-4.17-13.017-4.17-19.963 c0-13.671,5.431-26.418,15.293-35.892c9.854-9.468,22.818-14.389,36.526-13.831c25.529,1.023,46.462,21.811,47.654,47.329 c0.363,7.78-1.017,15.293-4.104,22.333c-6.292,14.354-4.985,30.675,3.498,43.662c6.21,9.507,9.492,20.563,9.492,31.971 c0,8.72-1.869,17.109-5.556,24.931c-5.273,11.188-4.115,24.557,3.023,34.887c7.87,11.388,12.028,24.755,12.028,38.654 c0,30.128-19.494,56.128-47.489,64.931V213.977l24.519-24.519c7.634-7.635,7.633-20.056,0-27.689l-0.001,0.001 c-3.688-3.689-8.606-5.722-13.846-5.722c-3.851,0-7.529,1.098-10.672,3.146v-30.496c0-10.796-8.784-19.579-19.579-19.579 s-19.58,8.784-19.58,19.579v129.806c-3.144-2.047-6.822-3.145-10.673-3.145c-5.24,0-10.156,2.031-13.846,5.721 c-7.634,7.635-7.633,20.056,0,27.689l24.519,24.518v33.77C36.904,339.137,16.617,314.08,15.377,284.484z M88.691,469.998 c0,2.311-1.953,4.265-4.265,4.265c-2.313,0-4.266-1.953-4.266-4.265V310.115c0-2.031-0.807-3.978-2.242-5.415l-26.761-26.761 c-1.636-1.635-1.635-4.396,0-6.03c0.817-0.818,1.916-1.226,3.015-1.226s2.198,0.408,3.015,1.226l9.9,9.9 c2.191,2.189,5.484,2.845,8.346,1.659c2.862-1.184,4.727-3.978,4.727-7.074V128.698c0-2.312,1.953-4.265,4.266-4.265 c2.312,0,4.265,1.953,4.265,4.265v48.385c0,3.097,1.865,5.89,4.727,7.074c2.863,1.186,6.153,0.531,8.346-1.659l9.899-9.899 c0.795-0.796,1.867-1.235,3.016-1.235c1.148,0,2.22,0.439,3.015,1.235c1.636,1.635,1.635,4.396,0,6.03L90.933,205.39 c-1.436,1.437-2.242,3.384-2.242,5.415C88.691,210.806,88.691,469.998,88.691,469.998z"/>
    <path d="M50.932,93.182c4.23,0,7.657-3.427,7.657-7.657c0-6.413,2.547-12.394,7.174-16.838c4.621-4.44,10.708-6.749,17.137-6.487 c4.239,0.167,7.789-3.119,7.959-7.344c0.169-4.225-3.119-7.789-7.344-7.959c-10.651-0.422-20.706,3.39-28.362,10.746 c-7.66,7.359-11.879,17.261-11.879,27.882C43.275,89.755,46.702,93.182,50.932,93.182z"/>
    <path d="M339.405,281.55c0-17.025-5.098-33.401-14.743-47.361c-4.045-5.854-4.723-13.384-1.769-19.652 c4.658-9.88,7.018-20.465,7.018-31.46c0-14.393-4.145-28.345-11.985-40.347c-5.56-8.514-6.439-19.678-2.293-29.136 c4.042-9.216,5.85-19.04,5.376-29.199c-1.56-33.382-28.943-60.579-62.339-61.918c-17.909-0.707-34.862,5.707-47.751,18.091 c-12.895,12.39-19.997,29.057-19.997,46.936c0,9.078,1.838,17.866,5.463,26.12c4.142,9.433,3.257,20.587-2.308,29.108 c-7.84,12.003-11.983,25.953-11.983,40.345c0,10.997,2.362,21.583,7.02,31.464c2.965,6.291,2.355,13.721-1.593,19.388 c-10.487,15.053-15.62,32.756-14.848,51.195c1.579,37.724,28.408,69.419,64.77,77.722v107.15c0,10.796,8.784,19.579,19.579,19.579 c10.796,0,19.58-8.784,19.58-19.579V362.376C313.355,353.091,339.405,320.086,339.405,281.55z M187.972,284.484 c-0.63-15.065,3.558-29.519,12.114-41.801c7.071-10.152,8.174-23.437,2.878-34.672c-3.688-7.824-5.558-16.213-5.558-24.934 c0-11.41,3.282-22.464,9.491-31.97c8.487-12.996,9.8-29.31,3.509-43.639c-2.768-6.302-4.171-13.019-4.171-19.963 c0-13.671,5.431-26.417,15.293-35.891c9.856-9.469,22.82-14.39,36.527-13.832c25.53,1.023,46.462,21.811,47.653,47.329 c0.363,7.782-1.016,15.295-4.103,22.333c-6.292,14.353-4.985,30.675,3.497,43.662c6.211,9.507,9.493,20.563,9.493,31.971 c0,8.72-1.869,17.109-5.556,24.931c-5.273,11.188-4.115,24.557,3.023,34.887c7.87,11.388,12.028,24.755,12.028,38.654 c0,30.128-19.494,56.128-47.489,64.931V213.977l24.518-24.518c3.689-3.689,5.721-8.607,5.721-13.846 c0-5.24-2.031-10.156-5.721-13.845c0.001,0.001-0.001-0.001-0.001-0.001c-3.688-3.689-8.605-5.721-13.845-5.721 c-3.851,0-7.529,1.098-10.672,3.146v-30.496c0-10.796-8.785-19.579-19.58-19.579c-10.796,0-19.579,8.784-19.579,19.579v129.807 c-3.144-2.047-6.822-3.145-10.673-3.145c-5.24,0-10.156,2.031-13.846,5.721c-7.634,7.635-7.633,20.056,0,27.689l24.519,24.518v33.77 C209.499,339.137,189.212,314.08,187.972,284.484z M261.286,469.998c0,2.311-1.953,4.265-4.266,4.265 c-2.312,0-4.265-1.953-4.265-4.265V310.115c0-2.031-0.807-3.978-2.242-5.415l-26.761-26.761c-1.636-1.635-1.635-4.396,0-6.03 c0.817-0.818,1.916-1.226,3.015-1.226c1.099,0,2.198,0.408,3.015,1.226l9.9,9.9c2.191,2.189,5.483,2.845,8.346,1.659 c2.862-1.184,4.727-3.978,4.727-7.074V128.698c0-2.312,1.953-4.265,4.265-4.265c2.313,0,4.266,1.953,4.266,4.265v48.385 c0,3.097,1.865,5.89,4.727,7.074c2.862,1.186,6.155,0.531,8.346-1.659l9.899-9.899c0.795-0.796,1.867-1.235,3.015-1.235 c0.665,0,1.941,0.16,3.015,1.234l0.001,0.001c1.074,1.074,1.234,2.35,1.234,3.015c0,1.148-0.439,2.22-1.235,3.016l-26.76,26.761 c-1.436,1.436-2.242,3.383-2.242,5.414L261.286,469.998L261.286,469.998z"/>
    <path d="M223.526,93.182c4.23,0,7.657-3.427,7.657-7.657c0-6.413,2.547-12.393,7.174-16.837c4.621-4.441,10.714-6.75,17.138-6.487 c4.227,0.167,7.789-3.119,7.959-7.344s-3.119-7.789-7.344-7.959c-10.658-0.419-20.706,3.391-28.363,10.746 c-7.66,7.359-11.879,17.261-11.879,27.882C215.869,89.755,219.296,93.182,223.526,93.182z"/>
    <path d="M512,281.55c0-17.025-5.098-33.401-14.743-47.361c-4.046-5.853-4.724-13.384-1.769-19.652 c4.657-9.879,7.017-20.464,7.017-31.46c0-14.392-4.144-28.344-11.984-40.347c-5.56-8.514-6.439-19.678-2.292-29.137 c4.041-9.217,5.849-19.041,5.375-29.198c-1.56-33.382-28.943-60.579-62.339-61.918c-17.923-0.707-34.862,5.707-47.751,18.091 c-12.895,12.39-19.997,29.057-19.997,46.936c0,9.078,1.838,17.866,5.463,26.12c4.142,9.433,3.257,20.587-2.308,29.108 c-7.84,12.003-11.983,25.953-11.983,40.345c0,10.998,2.362,21.586,7.02,31.464c2.965,6.292,2.355,13.721-1.594,19.39 c-10.486,15.053-15.619,32.756-14.847,51.194c1.579,37.724,28.408,69.419,64.77,77.722v107.15c0,10.796,8.784,19.579,19.579,19.579 s19.579-8.784,19.579-19.579v-107.62C485.949,353.092,512,320.086,512,281.55z M433.881,469.998c0,2.311-1.953,4.265-4.265,4.265 s-4.265-1.953-4.265-4.265V310.115c0-2.031-0.807-3.978-2.242-5.415l-26.761-26.761c-1.636-1.635-1.635-4.396,0-6.03 c0.817-0.818,1.916-1.226,3.015-1.226s2.198,0.408,3.015,1.226l9.9,9.9c2.191,2.189,5.483,2.845,8.346,1.659 c2.862-1.184,4.727-3.978,4.727-7.074V128.698c0-2.312,1.953-4.265,4.265-4.265s4.265,1.953,4.265,4.265v48.385 c0,3.097,1.865,5.89,4.727,7.074c2.863,1.186,6.155,0.531,8.345-1.659l9.901-9.9c1.074-1.074,2.35-1.234,3.015-1.234 c0.665,0,1.941,0.16,3.015,1.234l0.001,0.001c1.074,1.074,1.234,2.35,1.234,3.015c0,1.148-0.439,2.22-1.235,3.015l-26.761,26.761 c-1.436,1.437-2.242,3.384-2.242,5.415L433.881,469.998L433.881,469.998z M449.195,346.481V213.977l24.519-24.518 c3.689-3.689,5.721-8.607,5.721-13.846c0-5.24-2.031-10.156-5.721-13.845c0,0.001-0.001-0.001-0.001-0.001 c-3.688-3.689-8.606-5.721-13.845-5.721c-3.852,0-7.53,1.098-10.673,3.146v-30.496c0-10.796-8.784-19.579-19.579-19.579 s-19.579,8.784-19.579,19.579v129.807c-3.144-2.047-6.822-3.145-10.673-3.145c-5.24,0-10.156,2.031-13.846,5.721 c-7.634,7.635-7.633,20.056,0,27.689l24.519,24.518v33.77c-27.942-7.919-48.23-32.976-49.47-62.572 c-0.63-15.064,3.558-29.519,12.113-41.8c7.071-10.152,8.175-23.438,2.879-34.673c-3.688-7.822-5.558-16.211-5.558-24.934 c0-11.41,3.282-22.464,9.491-31.97c8.487-12.996,9.8-29.31,3.509-43.639c-2.768-6.302-4.171-13.019-4.171-19.963 c0-13.671,5.431-26.417,15.293-35.891c9.856-9.469,22.802-14.39,36.527-13.832c25.53,1.023,46.462,21.811,47.653,47.329 c0.363,7.78-1.016,15.293-4.103,22.333c-6.292,14.353-4.985,30.675,3.497,43.662c6.21,9.507,9.492,20.563,9.492,31.971 c0,8.721-1.869,17.11-5.555,24.931c-5.273,11.19-4.115,24.558,3.023,34.887c7.87,11.388,12.028,24.755,12.028,38.654 C496.686,311.679,477.191,337.678,449.195,346.481z"/>
    <path d="M428.706,46.897c-10.648-0.419-20.706,3.391-28.363,10.746c-7.66,7.359-11.879,17.261-11.879,27.882 c0,4.23,3.427,7.657,7.657,7.657c4.23,0,7.657-3.427,7.657-7.657c0-6.413,2.547-12.393,7.174-16.837 c4.622-4.441,10.699-6.75,17.138-6.487c4.253,0.167,7.789-3.119,7.959-7.344C436.22,50.632,432.931,47.066,428.706,46.897z"/>
    <path d="M199.622,434.188c-0.459-15.424-13.15-27.83-28.684-27.83c-14.794,0-27.01,11.254-28.535,25.652 c-11.156,3.988-19.136,14.744-19.136,27.034c0,15.823,12.873,28.696,28.696,28.696h33.292c15.823,0,28.696-12.873,28.696-28.696 C213.952,448.589,208.386,439.226,199.622,434.188z M185.255,472.426h-33.292c-7.379,0-13.381-6.003-13.381-13.381 c0-6.88,5.366-12.731,12.217-13.318c2.101-0.181,4.035-1.218,5.345-2.871c1.31-1.653,1.882-3.772,1.578-5.858 c-0.111-0.775-0.164-1.392-0.164-1.941c0-7.38,6.003-13.382,13.381-13.382c7.378,0,13.381,6.003,13.381,13.382 c0,0.797-0.083,1.641-0.246,2.507c-0.719,3.808,1.522,7.553,5.218,8.721c5.59,1.765,9.344,6.894,9.344,12.76 C198.637,466.422,192.633,472.426,185.255,472.426z"/>
    <path d="M374.333,434.188c-0.459-15.424-13.15-27.83-28.685-27.83c-14.794,0-27.01,11.254-28.535,25.652 c-11.156,3.988-19.136,14.744-19.136,27.034c0,15.823,12.873,28.696,28.696,28.696h33.292c15.823,0,28.697-12.873,28.697-28.696 C388.662,448.589,383.098,439.226,374.333,434.188z M359.965,472.426h-33.292c-7.379,0-13.381-6.003-13.381-13.381 c0-6.88,5.366-12.731,12.217-13.318c2.101-0.181,4.035-1.218,5.345-2.871c1.31-1.653,1.882-3.772,1.578-5.858 c-0.111-0.775-0.164-1.392-0.164-1.941c0-7.38,6.003-13.382,13.381-13.382c7.38,0,13.382,6.003,13.382,13.382 c0,0.806-0.081,1.625-0.247,2.507c-0.719,3.808,1.522,7.553,5.218,8.721c5.59,1.765,9.345,6.894,9.345,12.76 C373.348,466.422,367.344,472.426,359.965,472.426z"/>
  </g>

</svg>