<!DOCTYPE svg PUBLIC "-//W3C//DTD SVG 1.1//EN" "http://www.w3.org/Graphics/SVG/1.1/DTD/svg11.dtd">

<!-- Uploaded to: SVG Repo, www.svgrepo.com, Transformed by: SVG Repo Mixer Tools -->
<svg fill="#000000" height="32px" width="32px" version="1.1"
  xmlns="http://www.w3.org/2000/svg" viewBox="-32 -32 384.00 384.00"
  xmlns:xlink="http://www.w3.org/1999/xlink" enable-background="new 0 0 320 320">

  <g id="SVGRepo_bgCarrier" stroke-width="0">

    <rect x="-32" y="-32" width="384.00" height="384.00" rx="192" fill="#e3e7e8" strokewidth="0"/>

  </g>

  <g id="SVGRepo_tracerCarrier" stroke-linecap="round" stroke-linejoin="round"/>

  <g id="SVGRepo_iconCarrier">
    <path d="m150,110h-80v80h-70v100h150 20 150v-80-20-60-20-80h-170v80zm-60,20h60 70v60h-50-20-60v-60zm60,140h-130v-60h50 80v60zm150,0h-130v-60h50 20 60v60zm0-80h-60v-60h60v60zm-130-140h130v60h-60-20-50v-60z"/>
  </g>

</svg>