<!DOCTYPE svg PUBLIC "-//W3C//DTD SVG 1.1//EN" "http://www.w3.org/Graphics/SVG/1.1/DTD/svg11.dtd">

<!-- Uploaded to: SVG Repo, www.svgrepo.com, Transformed by: SVG Repo Mixer Tools -->
<svg fill="#000000" height="32px" width="32px" version="1.1" id="Layer_1"
  xmlns="http://www.w3.org/2000/svg"
  xmlns:xlink="http://www.w3.org/1999/xlink" viewBox="-51.2 -51.2 614.40 614.40" xml:space="preserve" stroke="#000000" stroke-width="0.0051199900000000005">

  <g id="SVGRepo_bgCarrier" stroke-width="0" transform="translate(0,0), scale(1)">

    <rect x="-51.2" y="-51.2" width="614.40" height="614.40" rx="307.2" fill="#e3e7e8" strokewidth="0"/>

  </g>

  <g id="SVGRepo_tracerCarrier" stroke-linecap="round" stroke-linejoin="round" stroke="#CCCCCC" stroke-width="3.071994"/>

  <g id="SVGRepo_iconCarrier">
    <g>
      <g>
        <path d="M495.327,369.288h-19.505c11.773-4.085,20.251-15.281,20.251-28.426v-55.788c0-16.59-13.496-30.086-30.085-30.086h-90.05 c11.255-4.356,19.262-15.289,19.262-28.064v-55.788c0-16.59-13.497-30.086-30.086-30.086h-89.95 c11.773-4.085,20.251-15.281,20.251-28.426V56.839c0-16.59-13.496-30.086-30.085-30.086H127.244 c-14.477,0-26.594,10.278-29.448,23.92c-2.741-13.625-14.801-23.92-29.222-23.92H16.673C7.465,26.753,0,34.218,0,43.426v82.612 c0,9.208,7.465,16.673,16.673,16.673h3.681c-11.773,4.085-20.251,15.281-20.251,28.426v55.788 c0,12.775,8.006,23.708,19.263,28.064h-2.693C7.465,254.989,0,262.454,0,271.661v82.612c0,9.208,7.465,16.673,16.673,16.673h7.309 c-11.773,4.085-20.251,15.28-20.251,28.426v55.788c0,16.59,13.496,30.086,30.085,30.086H171.9c14.37,0,26.411-10.128,29.378-23.62 c2.967,13.491,15.008,23.62,29.378,23.62H368.74c14.477,0,26.594-10.278,29.448-23.92c2.741,13.625,14.801,23.92,29.222,23.92 h67.917c9.208,0,16.673-7.465,16.673-16.673v-82.612C512,376.753,504.535,369.288,495.327,369.288z M361.854,174.397v49.267 H230.29v-49.267H361.854z M298.43,346.916c2.143,10.447,9.723,18.93,19.638,22.371h-39.277 C288.707,365.848,296.287,357.365,298.43,346.916z M279.781,257.01h37.297c-9.427,3.649-16.576,11.911-18.648,22.008 C296.358,268.922,289.21,260.66,279.781,257.01z M130.505,60.099h131.563v49.266H130.505V60.099z M197.651,164.671 c-2.256-10.258-9.759-18.566-19.544-21.96h39.089C207.41,146.105,199.907,154.413,197.651,164.671z M216.206,254.989h-37.108 c9.299-3.599,16.374-11.689,18.554-21.598C199.831,243.3,206.907,251.389,216.206,254.989z M97.797,118.791 c2.174,10.397,9.733,18.833,19.613,22.261H78.364C88.201,137.621,95.707,129.177,97.797,118.791z M165.012,174.397v49.267H33.449 v-49.267H165.012z M101.426,347.028c2.174,10.397,9.733,18.833,19.613,22.261H81.992 C91.83,365.857,99.336,357.414,101.426,347.028z M82.974,257.011h37.074c-9.393,3.635-16.522,11.85-18.623,21.897 C99.406,268.872,92.327,260.65,82.974,257.011z M33.346,60.099h31.692v49.266H33.346V60.099z M33.346,337.601v-49.266h35.32 v49.266H33.346z M168.641,451.9H37.077v-49.266h131.564V451.9z M201.279,392.907c-2.256-10.258-9.759-18.566-19.544-21.96h39.088 C211.038,374.342,203.535,382.65,201.279,392.907z M134.134,337.602v-49.267h131.563v49.267H134.134z M365.482,451.9H233.918 v-49.266h131.564V451.9z M398.189,393.208c-2.174-10.396-9.733-18.833-19.613-22.261h39.046 C407.785,374.378,400.279,382.822,398.189,393.208z M331.164,337.602v-49.267h131.563v49.267H331.164z M478.654,451.9h-47.706 v-49.266h47.706V451.9z"/>
      </g>
    </g>
  </g>

</svg>