<!DOCTYPE svg PUBLIC "-//W3C//DTD SVG 1.1//EN" "http://www.w3.org/Graphics/SVG/1.1/DTD/svg11.dtd">

<!-- Uploaded to: SVG Repo, www.svgrepo.com, Transformed by: SVG Repo Mixer Tools -->
<svg version="1.1" id="Layer_1"
  xmlns="http://www.w3.org/2000/svg"
  xmlns:xlink="http://www.w3.org/1999/xlink" viewBox="-51.2 -51.2 614.40 614.40" xml:space="preserve" width="32px" height="32px" fill="#000000">

  <g id="SVGRepo_bgCarrier" stroke-width="0" transform="translate(0,0), scale(1)">

    <rect x="-51.2" y="-51.2" width="614.40" height="614.40" rx="307.2" fill="#d9f0f7" strokewidth="0"/>

  </g>

  <g id="SVGRepo_tracerCarrier" stroke-linecap="round" stroke-linejoin="round" stroke="#CCCCCC" stroke-width="22.528132000000003"/>

  <g id="SVGRepo_iconCarrier">
    <rect x="238.838" y="128.094" style="fill:#A4A9AD;" width="34.309" height="216.493"/>
    <polygon style="opacity:0.2;enable-background:new ;" points="256.001,310.756 238.843,297.308 238.843,344.584 273.153,344.584 273.153,297.315 "/>
    <path style="opacity:0.3;enable-background:new ;" d="M238.843,128.092v62.367c5.546,1.116,11.282,1.708,17.158,1.708 c5.872,0,11.606-0.592,17.151-1.707v-62.368H238.843z"/>
    <rect x="172.625" y="341.285" transform="matrix(-0.7871 -0.6169 0.6169 -0.7871 267.9181 809.3613)" style="fill:#A4A9AD;" width="202.049" height="34.31"/>
    <polygon style="opacity:0.1;enable-background:new ;" points="251.194,319.021 223.384,340.816 251.194,362.611 279.003,340.816 "/>
    <path style="opacity:0.2;enable-background:new ;" d="M188.05,303.879l-2.143,7.565l29.181,22.87l10.104-35.672l-20.467-16.041 L188.05,303.879z"/>
    <polygon style="opacity:0.1;enable-background:new ;" points="263.771,328.878 235.962,350.673 263.771,372.469 291.58,350.673 "/>
    <rect x="221.193" y="257.416" transform="matrix(-0.6169 -0.7871 0.7871 -0.6169 103.2629 767.1473)" style="fill:#A4A9AD;" width="34.31" height="202.049"/>
    <path style="opacity:0.2;enable-background:new ;" d="M155.985,417.085l13.44,17.148l22.316-17.491l15.87-56.028l-45.834,35.923 L155.985,417.085z"/>
    <path style="opacity:0.2;enable-background:new ;" d="M307.269,282.602l-20.467,16.041l10.104,35.672l29.181-22.87l-2.143-7.565 L307.269,282.602z"/>
    <path style="opacity:0.2;enable-background:new ;" d="M350.219,396.637l-45.834-35.923l15.87,56.028l22.316,17.491l13.44-17.148 L350.219,396.637z"/>
    <path style="fill:#333E48;" d="M354.55,488.584L256.001,140.67l-98.549,347.914l-33.011-9.35L239.496,73.05 c2.092-7.384,8.831-12.48,16.506-12.48c7.673,0,14.414,5.096,16.505,12.48l115.055,406.185L354.55,488.584z"/>
    <path style="opacity:0.2;enable-background:new ;" d="M272.507,73.05c-2.092-7.384-8.831-12.48-16.505-12.48 c-7.674,0-14.414,5.096-16.506,12.48L207.95,184.42c9.704,5.932,20.596,10.101,32.229,12.112l15.823-55.862l15.823,55.862 c11.632-2.011,22.524-6.18,32.228-12.112L272.507,73.05z"/>
    <circle style="fill:#D1D3D3;" cx="256.004" cy="105.653" r="61.857"/>
    <g>
      <path style="fill:#FFB819;" d="M175.041,179.288c-2.341,0-4.661-1.016-6.25-2.975c-16.152-19.913-25.048-45.009-25.048-70.662 c0-25.655,8.896-50.749,25.048-70.66c2.797-3.45,7.861-3.98,11.311-1.179c3.449,2.797,3.977,7.861,1.179,11.31 c-13.835,17.056-21.455,38.552-21.455,60.529c0,21.976,7.62,43.473,21.455,60.532c2.797,3.449,2.27,8.513-1.179,11.311 C178.611,178.7,176.82,179.288,175.041,179.288z"/>
      <path style="fill:#FFB819;" d="M135.534,211.295c-2.341,0-4.661-1.016-6.25-2.975c-23.46-28.921-36.38-65.384-36.38-102.671 s12.92-73.75,36.38-102.671c2.798-3.45,7.862-3.979,11.31-1.179c3.449,2.797,3.978,7.861,1.179,11.31 c-21.143,26.066-32.787,58.93-32.787,92.54s11.644,66.475,32.787,92.54c2.797,3.449,2.27,8.512-1.179,11.31 C139.106,210.708,137.314,211.295,135.534,211.295z"/>
      <path style="fill:#FFB819;" d="M336.962,179.288c-1.78,0-3.57-0.588-5.061-1.796c-3.449-2.797-3.977-7.862-1.179-11.311 c13.836-17.058,21.456-38.555,21.456-60.532s-7.62-43.473-21.456-60.529c-2.797-3.449-2.27-8.512,1.179-11.31 c3.448-2.797,8.512-2.273,11.311,1.179c16.153,19.911,25.049,45.007,25.049,70.66s-8.896,50.749-25.049,70.662 C341.623,178.271,339.302,179.288,336.962,179.288z"/>
      <path style="fill:#FFB819;" d="M376.469,211.295c-1.78,0-3.571-0.588-5.061-1.797c-3.449-2.797-3.978-7.861-1.179-11.31 c21.143-26.066,32.787-58.93,32.787-92.54s-11.644-66.475-32.787-92.54c-2.797-3.449-2.27-8.512,1.179-11.31 c3.447-2.799,8.512-2.271,11.31,1.179c23.459,28.921,36.379,65.382,36.379,102.671s-12.92,73.75-36.379,102.671 C381.13,210.279,378.81,211.295,376.469,211.295z"/>
    </g>
    <g>
      <path style="fill:#A4A9AD;" d="M186.143,470.123c0-3.447-2.818-6.264-6.265-6.264h-77.86c-3.447,0-6.267,2.817-6.267,6.264v27.571 c0,3.447,2.82,6.268,6.267,6.268h77.86c3.447,0,6.265-2.821,6.265-6.268L186.143,470.123L186.143,470.123z"/>
      <path style="fill:#A4A9AD;" d="M325.86,470.123c0-3.447,2.818-6.264,6.265-6.264h77.86c3.447,0,6.267,2.817,6.267,6.264v27.571 c0,3.447-2.82,6.268-6.267,6.268h-77.86c-3.447,0-6.265-2.821-6.265-6.268L325.86,470.123L325.86,470.123z"/>
    </g>
    <path style="fill:#1E252B;" d="M409.984,455.818h-20.699L304.37,156.037c13.254-12.728,21.529-30.604,21.529-50.387 c0-38.541-31.357-69.898-69.898-69.898c-38.542,0-69.898,31.357-69.898,69.898c0,19.783,8.275,37.659,21.529,50.387l-84.915,299.781 h-20.699c-7.889,0-14.308,6.417-14.308,14.305v27.571c0,7.889,6.418,14.309,14.308,14.309h77.86c7.888,0,14.306-6.419,14.306-14.309 v-27.571c0-7.887-6.418-14.305-14.306-14.305h-4.786l5.756-20.322l75.144-58.893l75.205,59.048l5.713,20.168h-4.786 c-7.888,0-14.306,6.417-14.306,14.305v27.571c0,7.889,6.418,14.309,14.306,14.309h77.86c7.889,0,14.308-6.419,14.308-14.309v-27.571 C424.292,462.235,417.874,455.818,409.984,455.818z M202.186,105.649c0-29.674,24.142-53.815,53.815-53.815 c29.674,0,53.815,24.142,53.815,53.815c0,29.674-24.142,53.815-53.815,53.815C226.327,159.465,202.186,135.324,202.186,105.649z M265.61,204.101v100.939l-9.609,7.531l-9.609-7.531V204.101l8.099-28.593c0.504,0.012,1.004,0.039,1.511,0.039 c0.507,0,1.006-0.027,1.511-0.039L265.61,204.101z M212.892,322.374l5.367-18.95l24.706,19.364l-14.772,11.578L212.892,322.374z M215.156,344.584l-10.998,8.619l3.996-14.107L215.156,344.584z M222.995,286.702l7.314-25.823v31.556L222.995,286.702z M178.102,471.9v24.019h-74.309V471.9H178.102z M158.377,455.818h-18.944l81.991-289.46c5.272,3.015,10.964,5.377,16.977,6.942 L158.377,455.818z M188.288,409.231l8.43-29.762l97.025-76.044l5.367,18.95L188.288,409.231z M281.693,292.435v-31.556l7.314,25.823 L281.693,292.435z M303.849,339.097l3.997,14.11l-10.999-8.622L303.849,339.097z M269.027,366.388l14.783-11.587l31.475,24.672 l8.464,29.88L269.027,366.388z M273.602,173.3c6.013-1.565,11.705-3.927,16.978-6.942l81.991,289.46h-18.944L273.602,173.3z M408.21,495.919h-74.309V471.9h74.309V495.919z"/>
  </g>

</svg>